<svg width="256" height="256" viewBox="0 0 256 256" fill="none" xmlns="http://www.w3.org/2000/svg">
  <path id="align-anchor" class="bias-top-left-fill" d="m 54.5068,38.4025 h 26 l -26,36 z" fill="cyan" opacity=".8" display="none"/>
  <circle id="cursor-hotspot" class="bias-t0909-l04115-outside" cx="61.589" cy="39.037" r="3" fill="magenta" opacity=".6" display="none"/>
  <defs>
    <!--use href="left_ptr.svg#pointer-shape"/-->
    <path id="pointer-shape" d="M 54.5068,59.3293 C 54.5068,34.1891 66.0783,32.7661 84.2164,49.3681 L 185.886,139.493 C 193.5573,146.3565 194.9547,164.6331 185.886,168.4278 C 176.8164,172.2226 147.0701,165.9497 123.8344,176.4324 C 100.5977,186.9152 86.1654,213.4889 76.7665,217.7293 C 67.3675,221.9698 54.6562,205.9764 54.5068,195.7192 z"/>
    <rect id="badge-shape" x="116" y="24" width="96" height="96" rx="40"/>
    <path id="badge-align" class="align-anchor-def bias-top-left-fill" d="m 116,24 h 32 l -32,32 z" fill="orange" opacity=".8"/>
    <mask id="outline-mask" color="#FFFFFF00">
      <use href="#pointer-shape" fill="currentColor" stroke="currentColor" stroke-width="32"/>
      <use href="#badge-shape" fill="currentColor" stroke="currentColor" stroke-width="32" align-anchor="badge-align"/>
    </mask>
    <mask id="pointer-mask" color="#FFFFFF00">
      <use href="#pointer-shape" fill="currentColor" stroke="none" stroke-width="32"/>
    </mask>
  </defs>

  <rect width="256" height="256" fill="#0000FF00" mask="url(#outline-mask)"/>
  <g color="#0000FF00" mask="url(#pointer-mask)">
    <rect width="256" height="256" fill="#00FF00"/>
    <use href="#badge-shape" fill="none" stroke="#0000FF00" stroke-width="32" align-anchor="badge-align"/>
  </g>
  <use href="#pointer-shape" fill="#00FF00FF" stroke="#0000FFFF" stroke-width="32" paint-order="stroke fill"/>
  <g align-anchor="badge-align">
    <use href="#badge-shape" fill="#FE0000" stroke="#0000FFFF" stroke-width="32" paint-order="stroke fill"/>
    <path d="M155.385 72L136 52.6154L144.615 44L164 63.3846L183.385 44L192 52.6154L172.615 72L192 91.3846L183.385 100L164 80.6154L144.615 100L136 91.3846L155.385 72Z" fill="white"/>
  </g>
</svg>
