<svg width="256" height="256" viewBox="0 0 256 256" fill="none" xmlns="http://www.w3.org/2000/svg">
  <path id="align-anchor" class="bias-bottom-left-fill" d="m 67,156 v 32 l 32,-32 z" fill="cyan" opacity=".8" display="none"/>
  <circle id="cursor-hotspot" class="bias-t2218-left-outside" cx="67" cy="44" r="3" fill="magenta" opacity=".6" display="none"/>
  <defs>
    <path id="pointer-shape" d="M 67,44 156,124.744 67,164 z"/>
    <circle id="badge-shape" cx="118" cy="162" r="62"/>
    <mask id="outline-mask" color="#FFFFFF00">
      <use href="#pointer-shape" fill="currentColor" stroke="currentColor" stroke-width="32"/>
      <use href="#badge-shape" fill="currentColor" stroke="currentColor" stroke-width="32" class="fixed-fill"/>
    </mask>
    <mask id="pointer-mask" color="#FFFFFF00">
      <use href="#pointer-shape" fill="currentColor" stroke="none" stroke-width="32"/>
    </mask>
  </defs>

  <rect width="256" height="256" fill="#0000FF00" mask="url(#outline-mask)"/>
  <g color="#0000FF00" mask="url(#pointer-mask)">
    <rect width="256" height="256" fill="#00FF00"/>
    <use href="#badge-shape" fill="none" stroke="#0000FF00" stroke-width="32" class="fixed-fill"/>
  </g>
  <use href="#pointer-shape" fill="#00FF00FF" stroke="#0000FFFF" stroke-width="32" paint-order="stroke fill"/>
  <g>
    <use href="#badge-shape" fill="#5F3BE4" stroke="#0000FCFF" stroke-width="32" paint-order="stroke fill" class="fixed-fill"/>
    <path d="M118.118 128C124.234 128 129.21 132.816 129.21 138.735C129.21 144.654 124.234 149.47 118.118 149.47C112.001 149.47 107.025 144.654 107.025 138.735C107.025 132.816 112.001 128 118.118 128ZM132.236 196.312H104V190.457H110.05V161.18H104V155.325H126.185V190.457H132.236V196.312Z" fill="#FFFFFC"/>
  </g>
</svg>
