<svg xmlns="http://www.w3.org/2000/svg" width="256" height="256" viewBox="0 0 256 256" fill="none">
  <path id="align-anchor" class="bias-top-right-fill" d="m 197,30.558928 h -26 l 26,36 z" fill="cyan" opacity=".8" display="none"/>
  <circle id="cursor-hotspot" class="bias-t093-r0367-outside" cx="190.1" cy="31.331" r="3" fill="magenta" opacity=".6" display="none"/>
  <defs>
    <path id="pointer-shape" d="M 179.824,33.697 C 182.364,31.08 185.21,30.27 188,30.646 C 188.93,30.772 189.854,31.028 190.758,31.395 C 194.372,32.86 197,35.8 197,40.662 V 147.271 L 108.4,107.289 L 114.504,101 z"/>
    <circle id="badge-shape" cx="138" cy="162" r="62"/>
    <mask id="outline-mask">
      <use href="#pointer-shape" fill="#fff" stroke="#fff" stroke-width="32"/>
      <use href="#badge-shape" fill="#fff" stroke="#fff" stroke-width="32"/>
    </mask>
    <mask id="pointer-mask">
      <use href="#pointer-shape" fill="#fff" stroke="none" stroke-width="32"/>
    </mask>
  </defs>

  <rect width="256" height="256" fill="#0000FF" mask="url(#outline-mask)"/>
  <g mask="url(#pointer-mask)">
    <rect width="256" height="256" fill="#00FF00"/>
    <use href="#badge-shape" fill="none" stroke="#0000FF" stroke-width="32"/>
  </g>
  <use href="#badge-shape" fill="#FF0000"/>
  <g mask="url(#wheel-mask)">
    <mask id="wheel-mask">
      <circle cx="138" cy="162" r="48.611" fill="#fff" stroke="#fff" stroke-width="0" class="fill-stroke"/>
    </mask>

  <g transform="translate(138,162) scale(1.56)">
    <path d="M 0,0 L 0,-50 A 50,50 0 0,1 50,0 z" fill="#F05024" fill-opacity="0.8" transform="rotate(1205.58)">
      <?animateTransform attributeName="transform" type="rotate" values="0;360" keyTimes="0;1" repeatCount="4" dur="0.75s" ?></path>
    <path d="M 0,0 L 50,0 A 50,50 0 0,1 0,50 z" fill="#FCB813" fill-opacity="0.8" transform="rotate(904.19)">
      <?animateTransform attributeName="transform" type="rotate" values="0;360" keyTimes="0;1" repeatCount="3" dur="1.0s" ?></path>
    <path d="M 0,0 L 0,50 A 50,50 0 0,1 -50,0 z" fill="#7EBA41" fill-opacity="0.8" transform="rotate(602.79)">
      <?animateTransform attributeName="transform" type="rotate" values="0;360" keyTimes="0;1" repeatCount="2" dur="1.5s" ?></path>
    <path d="M 0,0 L -50,0 A 50,50 0 0,1 0,-50 z" fill="#32A0DA" fill-opacity="0.8" transform="rotate(301.4)">
      <?animateTransform attributeName="transform" type="rotate" values="0;360" keyTimes="0;1" repeatCount="1" dur="3.0s" ?></path>
  </g>

  </g>
</svg>
